<?xml version="1.0" encoding="utf-8"?>
<!-- Generator: Adobe Illustrator 19.1.0, SVG Export Plug-In . SVG Version: 6.00 Build 0)  -->
<svg version="1.1" id="Слой_1" xmlns="http://www.w3.org/2000/svg" xmlns:xlink="http://www.w3.org/1999/xlink" x="0px" y="0px"
	 viewBox="0 0 900 900" style="enable-background:new 0 0 300 300;" xml:space="preserve"
	 width="900" height="900">
<style type="text/css">
	.st0{fill:#FBE8FF;}
</style>
<defs>
<pattern id="ptr1" x="0" y="0" width="300" height="300" patternUnits="userSpaceOnUse">
    <path class="st0" d="M78,95.6c3-4.7-0.1-8.9-2-12.1c-1.6-2.6-3.7-8.4-4.9-13.9c-1-4.5-2.1-12.7-2.5-19.6
        c7.3-7.5,26.8-30.8,26.8-30.8S76.6,34.6,68.3,42c-0.6-10.7-3.1-34.3-3.1-34.3s-2.9,30.1-3,40C56.9,52.5,50,57.8,46,60.4
        c-4.9,3.2-10.7,6-13.7,6.9c-3.8,1-9,2.1-10.3,7.5c-1.3,5.4,3.6,9.5,9.3,8.4c3.3-0.7,5.3-2.9,6.3-4.9l1.6,0.4
        c0.5,0.1,1.1-0.1,1.2-0.7c0.2-0.5-0.2-1-0.7-1.2l-1.5-0.4c0-0.1,0.1-0.2,0.1-0.3c0.6-2.5-1-6.7,2.4-9.4c2.8-2.2,15.7-8.6,22.4-12.5
        c2.1,7.2,6.7,20.1,7.1,23.4c0.5,4.1-3.7,6.2-5.1,8.4C65.1,86,65,86.1,65,86.2l-1.3-0.7c-0.5-0.2-1.1-0.1-1.4,0.4
        c-0.3,0.5-0.1,1,0.4,1.3l1.5,0.7c-0.8,2.2-0.9,5,1,7.7c2.2,3.1,6,4.2,9.1,3.1c1.8,2,1.5,6.2,2.2,7.7c0.8,1.6,2.8,0.7,2.2-1.1
        c-0.4-1.5-2.2-6-2.8-7.4C76.7,97.3,77.4,96.5,78,95.6z M33.8,80.2c-3.1,2.1-7.1,1.7-9.1-0.9c-2-2.6-1.1-6.4,2-8.4
        c3.1-2.1,7.1-1.7,9.1,0.9C37.7,74.3,36.8,78.1,33.8,80.2z M72.7,97.3c-3.3,0.6-6.5-1.8-7.2-5.3c-0.7-3.5,1.4-6.9,4.7-7.4
        c3.3-0.6,6.5,1.8,7.2,5.3C78.1,93.4,76,96.7,72.7,97.3z"/>
    <path class="st0" d="M154.6,125c-5-2.5-7.8-4.2-8.2-5.5l0.9-0.3l-2.5-7.5l-1.6,0.5l-3.2-5.8l9.6-6.8l-0.6-1.7l-12.8-3.4l-30.1-0.7
        l-7.9,1.4l-0.4,3.9l8.1,3c-0.7,1-1.5,2.3-2,3.8c-1,3.1,2.4,3.9,2.4,3.9s-0.4,7.8-1.4,12.6c-1,4.7-4.7,13.2-4.7,13.2l1,0.8
        c0,0,5-5.1,8.5-10.6c3.5-5.4,3.4-9,3.4-9l3.2-1.1l8.6-5.7l2,0.9l1.8,5.6l-1.6,0.5l2.5,7.5l1-0.3c0.4,1.3-0.9,4.1-3.5,8.9
        c-2.7,4.8-6.5,14.1-2,27.8c4.5,13.7,12.3,21.3,15.6,24.6c3.3,3.3,11.8,3.7,19,1.6c7.2-2.1,14-7,14.7-11.5c0.8-4.5,2.7-15-1.8-28.7
        C168.4,133.1,159.7,127.5,154.6,125z M114.8,111.4L114,109l1.7-1l1.3,0.8l2.2-1.5l0.8,0.4L114.8,111.4z M131.6,122.9
        c0.1,0.2-0.1,0.5-0.3,0.5c-0.2,0.1-0.5-0.1-0.6-0.3l-1.9-5.7c-0.1-0.2,0.1-0.5,0.3-0.5c0.2-0.1,0.5,0.1,0.6,0.3L131.6,122.9z
         M133.6,122.3c0.1,0.2-0.1,0.5-0.3,0.5c-0.2,0.1-0.5-0.1-0.6-0.3l-1.9-5.7c-0.1-0.2,0.1-0.5,0.3-0.5c0.2-0.1,0.5,0.1,0.6,0.3
        L133.6,122.3z M135.7,121.7c0.1,0.2-0.1,0.5-0.3,0.5c-0.2,0.1-0.5-0.1-0.6-0.3l-1.9-5.7c-0.1-0.2,0.1-0.5,0.3-0.5
        c0.2-0.1,0.5,0.1,0.6,0.3L135.7,121.7z M137.7,121.1c0.1,0.2-0.1,0.5-0.3,0.5c-0.2,0.1-0.5-0.1-0.6-0.3l-1.9-5.7
        c-0.1-0.2,0.1-0.5,0.3-0.5c0.2-0.1,0.5,0.1,0.6,0.3L137.7,121.1z M139.8,120.5c0.1,0.2-0.1,0.5-0.3,0.5c-0.2,0.1-0.5-0.1-0.6-0.3
        L137,115c-0.1-0.2,0.1-0.5,0.3-0.5c0.2-0.1,0.5,0.1,0.6,0.3L139.8,120.5z M141.8,119.9c0.1,0.2-0.1,0.5-0.3,0.5
        c-0.2,0.1-0.5-0.1-0.6-0.3l-1.9-5.7c-0.1-0.2,0.1-0.5,0.3-0.5c0.2-0.1,0.5,0.1,0.6,0.3L141.8,119.9z M143.9,119.3
        c0.1,0.2-0.1,0.5-0.3,0.5c-0.2,0.1-0.5-0.1-0.6-0.3l-1.9-5.7c-0.1-0.2,0.1-0.5,0.3-0.5c0.2-0.1,0.5,0.1,0.6,0.3L143.9,119.3z
         M145.9,118.7c0.1,0.2-0.1,0.5-0.3,0.5c-0.2,0.1-0.5-0.1-0.6-0.3l-1.9-5.7c-0.1-0.2,0.1-0.5,0.3-0.5c0.2-0.1,0.5,0.1,0.6,0.3
        L145.9,118.7z"/>
    <path class="st0" d="M244.4,132.5l-0.5-0.1l-1.7,9.7l-0.4-0.1l1.2-9.7l-0.5-0.1l-1.7,9.7l-0.4-0.1l1.2-9.7l-0.5-0.1l-1.7,9.7
        l-0.4-0.1l1.2-9.7l-0.5-0.1l-1.7,9.7l-0.4-0.1l1.2-9.7l-0.5-0.1l-1.7,9.7l-0.4-0.1l1.2-9.7l-0.5-0.1l-1.7,9.7l-0.4-0.1l1.2-9.7
        l-0.5-0.1l-1.7,9.7l-0.4-0.1l1.2-9.7l-0.5-0.1l-1.7,9.7l-0.4-0.1l1.2-9.7L233,131l-1.7,9.7l-0.4-0.1l1.2-9.7l-0.5-0.1l-1.7,9.7
        l-0.4-0.1l1.2-9.7l-0.5-0.1l-1.7,9.7l-0.4-0.1l1.2-9.7l-0.5-0.1l-1.7,9.7l-0.4-0.1l1.2-9.7l-0.5-0.1l-1.7,9.7l-0.4-0.1l1.2-9.7
        l-0.5-0.1l-1.7,9.7l-0.4-0.1l1.2-9.7l-0.5-0.1l-1.7,9.7l-0.4-0.1l1.2-9.7l-0.5-0.1l-1.7,9.7l-0.4-0.1l1.2-9.7l-0.5-0.1l-1.7,9.7
        l-0.4-0.1l1.2-9.7l-0.5-0.1l-1.7,9.7l-0.4-0.1l1.2-9.7l-0.5-0.1l-1.7,9.7l-0.4-0.1l1.2-9.7l-0.5-0.1l-1.7,9.7l-0.4-0.1l1.2-9.7
        l-0.5-0.1l-1.7,9.7c-1.4,9.4,3.5,11,5.1,16.3c1.6,5.3,2.2,9.7,1,18.5c-1,6.7-3.4,36-3.9,39c0,0,0.4,1.2,1.3,1.3
        c0.9,0.1,1.6-0.9,1.6-0.9c0.4-3,6.5-31.9,7.5-38.5c1.3-8.8,3.2-12.9,6.2-17.6c3.1-4.7,8.2-5,9.5-14.4L244.4,132.5z"/>
    <path class="st0" d="M65.1,199.4l0.3-0.5l-3.1-1.7l0.2-0.3c0.5-1,0.1-2.1-0.9-2.6l-10.2-4.9c-1-0.5-2.2-0.1-2.8,0.8l-0.2,0.3
        l-3.2-1.4l-0.3,0.5l3.1,1.7l-0.2,0.5l-3.2-1.4l-0.3,0.5l3.1,1.7l-0.2,0.5l-3.2-1.4l-0.3,0.5l3.1,1.7l-0.2,0.5l-3.2-1.4l-0.3,0.5
        l3.1,1.7l-0.2,0.5l-3.2-1.4l-0.3,0.5l3.1,1.7l-0.2,0.5l-3.2-1.4l-0.3,0.5l3.1,1.7l-0.2,0.5l-3.2-1.4l-0.3,0.5l3.1,1.7l-0.2,0.5
        l-3.2-1.4l-0.3,0.5l3.1,1.7l-0.2,0.5l-3.2-1.4l-0.3,0.5l3.1,1.7l-0.2,0.5l-3.2-1.4l-0.3,0.5l3.1,1.7l-0.2,0.5l-3.2-1.4l-0.3,0.5
        l3.1,1.7l-0.2,0.5l-3.2-1.4l-0.3,0.5l3.1,1.7l-0.2,0.5l-3.2-1.4l-0.3,0.5l3.1,1.7l-0.2,0.5l-3.2-1.4l-0.3,0.5l3.1,1.7l-0.2,0.5
        l-3.2-1.4l-0.3,0.5l3.1,1.7l-0.2,0.5l-3.2-1.4l-0.3,0.5l3.1,1.7l-0.2,0.5l-3.2-1.4l-0.3,0.5l3.1,1.7l-0.2,0.5l-3.2-1.4l-0.3,0.5
        l3.1,1.7l-0.2,0.5l-3.2-1.4l-0.3,0.5l3.1,1.7l-0.2,0.5l-3.2-1.4l-0.3,0.5l3.1,1.7l-0.2,0.5l-3.2-1.4l-0.3,0.5l3.1,1.7l-0.2,0.5
        l-3.2-1.4l-0.3,0.5l3.1,1.7l-0.2,0.5l-3.2-1.4l-0.3,0.5l3.1,1.7l-0.2,0.5l-3.2-1.4l-0.3,0.5l3.1,1.7l-0.2,0.5l-3.2-1.4l-0.3,0.5
        l3.1,1.7l-0.2,0.5l-3.2-1.4l-0.3,0.5l3.1,1.7l-0.2,0.5l-3.2-1.4l-0.3,0.5l3.1,1.7l-0.2,0.5l-3.2-1.4l-0.3,0.5l3.1,1.7l-0.2,0.5
        l-3.2-1.4l-0.3,0.5l3.1,1.7l-0.2,0.3c-0.5,1-0.1,2.1,0.9,2.6c1.8,0.9,2.5,2.7,1.1,5.3c-1.4,2.5-8.2,9.2-13.3,18.6
        c-5,9.4-8.3,19.6-5.5,20.9c2.7,1.3,9.6-7.2,14.6-16.5c5-9.4,6.7-18.6,8.1-21.1c1.4-2.5,3.4-3.1,5.2-2.2c1,0.5,2.2,0.1,2.8-0.8
        l0.2-0.3l3.2,1.4l0.3-0.5l-3.1-1.7l0.2-0.5l3.2,1.4l0.3-0.5l-3.1-1.7l0.2-0.5l3.2,1.4l0.3-0.5l-3.1-1.7l0.2-0.5l3.2,1.4l0.3-0.5
        l-3.1-1.7l0.2-0.5l3.2,1.4l0.3-0.5l-3.1-1.7l0.2-0.5l3.2,1.4l0.3-0.5l-3.1-1.7l0.2-0.5l3.2,1.4l0.3-0.5l-3.1-1.7l0.2-0.5l3.2,1.4
        l0.3-0.5l-3.1-1.7l0.2-0.5l3.2,1.4l0.3-0.5l-3.1-1.7l0.2-0.5l3.2,1.4l0.3-0.5l-3.1-1.7l0.2-0.5l3.2,1.4l0.3-0.5l-3.1-1.7l0.2-0.5
        l3.2,1.4l0.3-0.5l-3.1-1.7l0.2-0.5l3.2,1.4l0.3-0.5l-3.1-1.7l0.2-0.5l3.2,1.4l0.3-0.5l-3.1-1.7l0.2-0.5l3.2,1.4l0.3-0.5l-3.1-1.7
        l0.2-0.5l3.2,1.4l0.3-0.5l-3.1-1.7l0.2-0.5l3.2,1.4l0.3-0.5l-3.1-1.7l0.2-0.5l3.2,1.4l0.3-0.5l-3.1-1.7l0.2-0.5l3.2,1.4l0.3-0.5
        l-3.1-1.7l0.2-0.5l3.2,1.4l0.3-0.5l-3.1-1.7l0.2-0.5l3.2,1.4l0.3-0.5l-3.1-1.7l0.2-0.5l3.2,1.4l0.3-0.5l-3.1-1.7l0.2-0.5l3.2,1.4
        l0.3-0.5l-3.1-1.7l0.2-0.5l3.2,1.4l0.3-0.5l-3.1-1.7l0.2-0.5l3.2,1.4l0.3-0.5l-3.1-1.7l0.2-0.5l3.2,1.4l0.3-0.5l-3.1-1.7l0.2-0.5
        l3.2,1.4l0.3-0.5l-3.1-1.7l0.2-0.5l3.2,1.4l0.3-0.5l-3.1-1.7l0.2-0.5L65.1,199.4z"/>
    <path class="st0" d="M149.3,286.7l-34.9-87.4c-0.7-1.8-2-0.8-1.6,0.3l13.6,41.6c1.6,4,0.2,7.4-2,8.2c-1.5,0.5-3.2,1.2-4.2,1.6
        c-0.5,0.2-0.6,0.5-0.5,0.9s0.2,0.6,0.2,0.6l9.6-3.3l0.2,0.5l-9.5,3.5l0.2,0.4l9.6-3.3l0.2,0.5l-9.5,3.5l0.2,0.4l9.6-3.3l0.2,0.5
        l-9.5,3.5l0.2,0.4l9.6-3.3l0.2,0.5l-9.5,3.5l0.2,0.4l9.6-3.3l0.2,0.5l-9.5,3.5l0.2,0.4l9.6-3.3l0.2,0.5l-9.5,3.5l0.2,0.4l9.6-3.3
        l0.2,0.5l-9.5,3.5l0.2,0.4l9.6-3.3l0.2,0.5l-9.5,3.5l0.2,0.4l9.6-3.3l0.2,0.5l-9.5,3.5l0.2,0.4l9.6-3.3l0.2,0.5l-9.5,3.5l0.2,0.4
        l9.6-3.3l0.2,0.5l-9.5,3.5l0.2,0.4l9.6-3.3l0.2,0.5l-9.5,3.5l0.2,0.4l9.6-3.3l0.2,0.5l-9.5,3.5l0.2,0.4l9.6-3.3l0.2,0.5l-9.5,3.5
        l0.2,0.4l9.6-3.3l0.2,0.5l-9.5,3.5l0.2,0.4l9.6-3.3l0.2,0.5l-9.5,3.5l0.2,0.4l9.6-3.3l0.2,0.5l-9.5,3.5l0.2,0.4l9.6-3.3l0.2,0.5
        l-9.5,3.5l0.2,0.4l9.6-3.3l0.2,0.5l-9.5,3.5l0.2,0.4l9.6-3.3l0.2,0.5l-9.5,3.5l0.2,0.4l9.6-3.3l0.2,0.5l-9.5,3.5l0.2,0.4l9.6-3.3
        l0.2,0.5l-9.5,3.5l0.2,0.4l9.6-3.3l0.2,0.5l-9.5,3.5l0.2,0.4l9.6-3.3l0.2,0.5l-9.5,3.5l0.2,0.4l9.6-3.3l0.2,0.5l-9.5,3.5l0.2,0.4
        l9.6-3.3l0.2,0.5l-9.5,3.5l0.2,0.4l9.6-3.3l0.2,0.5l-9.5,3.5l0.2,0.4l9.6-3.3l0.2,0.5l-9.5,3.5l0.2,0.4l9.6-3.3l0.2,0.5l-9.5,3.5
        l0.2,0.4l9.6-3.3l0.2,0.5l-9.5,3.5l0.2,0.4l9.6-3.3l0.2,0.5l-9.5,3.5l0.2,0.4l9.6-3.3l0.2,0.5l-9.5,3.5l0.2,0.4l9.6-3.3l0.2,0.5
        l-9.5,3.5l0.2,0.4l9.6-3.3l0.2,0.5l-9.5,3.5l0.2,0.4l9.6-3.3l0.1,0.4l-9.5,3.5c0,0,0.1,0.3,0.2,0.5c0.2,0.4,0.6,0.5,0.9,0.4l8.9-3.2
        c0,0,0,0,0,0l2.9-1C149.2,288.1,149.6,287.4,149.3,286.7z"/>
    <path class="st0" d="M239.3,12.8l-0.3-0.5l-7.9,3.9l-0.8-1.5c-0.5-0.9-1.8-1.3-2.8-0.8l-8.2,4.2c-1,0.5-1.4,1.7-0.8,2.6l0.8,1.5
        l-7.7,4.1l0.3,0.5l7.9-3.9l0.5,0.8l-7.7,4.1l0.3,0.5l7.9-3.9l0.5,0.8l-7.7,4.1l0.3,0.5l7.9-3.9l0.5,0.8l-7.7,4.1l0.3,0.5l7.9-3.9
        l0.5,0.8l-7.7,4.1l0.3,0.5l7.9-3.9l0.5,0.8l-7.7,4.1l0.3,0.5l7.9-3.9l0.5,0.8l-7.7,4.1l0.3,0.5l7.9-3.9l0.5,0.8l-7.7,4.1l0.3,0.5
        l7.9-3.9l0.5,0.8l-7.7,4.1l0.3,0.5l7.9-3.9l0.5,0.8l-7.7,4.1l0.3,0.5l7.9-3.9l0.5,0.8l-7.7,4.1l0.3,0.5l7.9-3.9l0.5,0.8l-7.7,4.1
        l0.3,0.5l7.9-3.9L230,41l-7.7,4.1l0.3,0.5l7.9-3.9l0.5,0.8l-7.7,4.1l0.3,0.5l7.9-3.9l0.5,0.8l-7.7,4.1l0.3,0.5l7.9-3.9l0.5,0.8
        l-7.7,4.1l0.3,0.5l7.9-3.9l0.5,0.8l-7.7,4.1l0.3,0.5l7.9-3.9l0.5,0.8l-7.7,4.1l0.3,0.5l7.9-3.9l0.5,0.8l-7.7,4.1l0.3,0.5l7.9-3.9
        l0.5,0.8l-7.7,4.1l0.3,0.5l7.9-3.9l0.5,0.8l-7.7,4.1l0.3,0.5l7.9-3.9l0.5,0.8l-7.7,4.1l0.3,0.5l7.9-3.9l0.5,0.8l-7.7,4.1l0.3,0.5
        l7.9-3.9l0.5,0.8l-7.7,4.1l0.3,0.5l7.9-3.9l0.5,0.8l-7.7,4.1l0.3,0.5l7.9-3.9l0.5,0.8l-7.7,4.1l0.3,0.5l7.9-3.9l0.5,0.8l-7.7,4.1
        l0.3,0.5l7.9-3.9l0.5,0.8l-7.7,4.1L236,69l7.9-3.9l0.5,0.8l-7.7,4.1l0.3,0.5l7.9-3.9l0.6,1c0.5,0.9,1.8,1.3,2.8,0.8
        c1.8-0.9,3.1,1,4.6,3.5c1.4,2.5,3.1,10.7,8.4,19.9c5.3,9.2,12.4,17.5,15.1,16.1c2.7-1.4-0.8-11.5-6.1-20.8
        c-5.3-9.2-11.6-15-13.1-17.5c-1.4-2.5-2.4-4.7-0.7-5.6c1-0.5,1.4-1.7,0.8-2.6l-0.6-1l7.7-4.1l-0.3-0.5l-7.9,3.9l-0.5-0.8l7.7-4.1
        l-0.3-0.5l-7.9,3.9l-0.5-0.8l7.7-4.1l-0.3-0.5l-7.9,3.9l-0.5-0.8l7.7-4.1l-0.3-0.5l-7.9,3.9l-0.5-0.8l7.7-4.1l-0.3-0.5l-7.9,3.9
        l-0.5-0.8l7.7-4.1l-0.3-0.5l-7.9,3.9l-0.5-0.8l7.7-4.1l-0.3-0.5l-7.9,3.9l-0.5-0.8l7.7-4.1l-0.3-0.5l-7.9,3.9l-0.5-0.8l7.7-4.1
        l-0.3-0.5l-7.9,3.9l-0.5-0.8l7.7-4.1l-0.3-0.5l-7.9,3.9l-0.5-0.8l7.7-4.1l-0.3-0.5l-7.9,3.9l-0.5-0.8l7.7-4.1l-0.3-0.5l-7.9,3.9
        l-0.5-0.8l7.7-4.1l-0.3-0.5l-7.9,3.9l-0.5-0.8l7.7-4.1l-0.3-0.5l-7.9,3.9l-0.5-0.8l7.7-4.1l-0.3-0.5l-7.9,3.9l-0.5-0.8l7.7-4.1
        l-0.3-0.5l-7.9,3.9l-0.5-0.8l7.7-4.1l-0.3-0.5l-7.9,3.9l-0.5-0.8l7.7-4.1l-0.3-0.5l-7.9,3.9l-0.5-0.8l7.7-4.1l-0.3-0.5l-7.9,3.9
        l-0.5-0.8l7.7-4.1l-0.3-0.5l-7.9,3.9l-0.5-0.8l7.7-4.1l-0.3-0.5l-7.9,3.9l-0.5-0.8l7.7-4.1l-0.3-0.5l-7.9,3.9l-0.5-0.8l7.7-4.1
        l-0.3-0.5l-7.9,3.9l-0.5-0.8l7.7-4.1l-0.3-0.5l-7.9,3.9l-0.5-0.8l7.7-4.1l-0.3-0.5l-7.9,3.9l-0.5-0.8l7.7-4.1l-0.3-0.5l-7.9,3.9
        l-0.5-0.8l7.7-4.1l-0.3-0.5l-7.9,3.9l-0.5-0.8l7.7-4.1l-0.3-0.5l-7.9,3.9l-0.5-0.8L239.3,12.8z"/>
    <path class="st0" d="M286.1,223.8c7.9-15.8,5.6-20.1,3.6-21.1c-6.2-2.8-15.5-6.4-16.1-5.1c-0.6,1.2,5.5,4,11.3,6.6
        c0.4-0.4,1.1-0.6,1.7-0.3c0.7,0.3,1,1.1,0.7,1.8c-0.3,0.7-1.2,1-1.9,0.6c-0.6-0.3-0.9-0.9-0.8-1.5c-5.8-2.6-12-5.2-12.6-4
        c-0.6,1.1,6.4,4.4,12.3,7c0.4-0.4,1.1-0.6,1.7-0.3c0.7,0.3,1,1.1,0.7,1.8c-0.3,0.7-1.2,1-1.9,0.6c-0.6-0.3-0.9-0.9-0.8-1.5
        c-5.9-2.6-13-5.6-13.5-4.5c-0.6,1.2,6.7,4.5,12.6,7.2c0.4-0.4,1.1-0.6,1.7-0.3c0.7,0.3,1,1.1,0.7,1.8c-0.3,0.7-1.2,1-1.9,0.6
        c-0.6-0.3-0.9-0.9-0.8-1.5c-6-2.7-13.3-5.8-13.9-4.6c-0.6,1.2,6.7,4.5,12.6,7.2c0.4-0.4,1.1-0.6,1.7-0.3c0.7,0.3,1,1.1,0.7,1.8
        c-0.3,0.7-1.2,1-1.9,0.6c-0.6-0.3-0.9-0.9-0.8-1.5c-6-2.7-13.3-5.8-13.9-4.6c-0.6,1.2,6.7,4.5,12.6,7.2c0.4-0.4,1.1-0.6,1.7-0.3
        c0.7,0.3,1,1.1,0.7,1.8c-0.3,0.7-1.2,1-1.9,0.6c-0.6-0.3-0.9-0.9-0.8-1.5c-6-2.7-13.3-5.8-13.9-4.6c-0.6,1.2,6.7,4.5,12.6,7.2
        c0.4-0.4,1.1-0.6,1.7-0.3c0.7,0.3,1,1.1,0.7,1.8c-0.3,0.7-1.2,1-1.9,0.6c-0.6-0.3-0.9-0.9-0.8-1.5c-6-2.7-13.3-5.8-13.9-4.6
        c-0.6,1.2,6.7,4.5,12.6,7.2c0.4-0.4,1.1-0.6,1.7-0.3c0.7,0.3,1,1.1,0.7,1.8c-0.3,0.7-1.2,1-1.9,0.6c-0.6-0.3-0.9-0.9-0.8-1.5
        c-6-2.7-13.3-5.8-13.9-4.6c-0.6,1.2,6.7,4.5,12.6,7.2c0.4-0.4,1.1-0.6,1.7-0.3c0.7,0.3,1,1.1,0.7,1.8c-0.3,0.7-1.2,1-1.9,0.6
        c-0.6-0.3-0.9-0.9-0.8-1.5c-6-2.7-13.3-5.8-13.9-4.6c-0.6,1.2,6.7,4.5,12.6,7.2c0.4-0.4,1.1-0.6,1.7-0.3c0.7,0.3,1,1.1,0.7,1.8
        c-0.3,0.7-1.2,1-1.9,0.6c-0.6-0.3-0.9-0.9-0.8-1.5c-6-2.7-13.3-5.8-13.9-4.6c-0.6,1.2,6.7,4.5,12.6,7.2c0.4-0.4,1.1-0.6,1.7-0.3
        c0.7,0.3,1,1.1,0.7,1.8c-0.3,0.7-1.2,1-1.9,0.6c-0.6-0.3-0.9-0.9-0.8-1.5c-6-2.7-13.3-5.8-13.9-4.6c-0.6,1.1,6.4,4.4,12.3,7
        c0.4-0.4,1.1-0.6,1.7-0.3c0.7,0.3,1,1.1,0.7,1.8c-0.3,0.7-1.2,1-1.9,0.6c-0.6-0.3-0.9-0.9-0.8-1.5c-5.9-2.6-13-5.6-13.5-4.5
        c-0.6,1.1,5.6,4,11.4,6.6c0.4-0.4,1.1-0.6,1.7-0.3c0.7,0.3,1,1.1,0.7,1.8c-0.3,0.7-1.2,1-1.9,0.6c-0.6-0.3-0.9-0.9-0.8-1.5
        c-5.8-2.5-12-5.2-12.6-4.1c-1.1,2.3,10.4,3.7,5.5,13.6c-3.1,6.2-18.4,21.9-20.3,25.7c-1.9,3.7-0.4,7.5,3.5,9.2
        c3.9,1.7,9.8,2.8,12.8-3.3c3-6,5.5-15.1,10.4-25C271.4,246.3,278.3,239.7,286.1,223.8z M247.2,280.5c-0.9-0.4-1.3-1.4-0.9-2.3
        c0.4-0.8,1.5-1.2,2.4-0.8c0.9,0.4,1.3,1.4,0.9,2.3C249.2,280.5,248.1,280.9,247.2,280.5z"/>
    <path class="st0" d="M138.2,75.6h1.2V55.9c0-1.2,0.7-2.1,1.8-2.8v22.4h0.7V52.8c0.5-0.3,1.1-0.5,1.8-0.7v23.4h0.7V51.9
        c0.6-0.1,1.2-0.2,1.8-0.3v24h0.7V51.5c0.6-0.1,1.2-0.1,1.8-0.2v24.2h0.7V51.3c0.7,0,1.3-0.1,1.8-0.1v24.3h0.7V51.2
        c0.5,0,1.1,0,1.8,0.1v24.3h0.7V51.3c0.6,0,1.2,0.1,1.8,0.2v24.1h0.7v-24c0.6,0.1,1.2,0.2,1.8,0.3v23.6h0.7V52.1
        c0.6,0.2,1.2,0.4,1.8,0.7v22.8h0.7V53.2c1.1,0.7,1.8,1.6,1.8,2.8v19.6h1.2l1-25c0-4.1-0.6-6.3-6.2-8c-5.5-1.7-5.2-8-4-10.1
        c1.2-2.1,3.6-2.5,3.3-7.3c-0.3-4.5-4.1-5.9-7.4-5.9c-3.3,0-7.1,1.4-7.4,5.9c-0.3,4.8,2.1,5.1,3.3,7.3c1.2,2.1,1.6,8.4-4,10.1
        c-5.5,1.7-6.2,3.9-6.2,8L138.2,75.6z M151.4,24.1c0.9,0,1.6,0.7,1.6,1.6c0,0.9-0.7,1.6-1.6,1.6c-0.9,0-1.6-0.7-1.6-1.6
        C149.8,24.8,150.5,24.1,151.4,24.1z"/>
	</pattern>
	</defs>
	<rect fill="url(#ptr1)"  x="0" y="0" width="900" height="900">
	</rect>
</svg>
